<?xml version="1.0" standalone="no"?>
<!DOCTYPE svg PUBLIC "-//W3C//DTD SVG 20010904//EN"
 "http://www.w3.org/TR/2001/REC-SVG-20010904/DTD/svg10.dtd">
<svg version="1.0" xmlns="http://www.w3.org/2000/svg"
 width="512.000000pt" height="512.000000pt" viewBox="0 0 512.000000 512.000000"
 preserveAspectRatio="xMidYMid meet">

<g transform="translate(0.000000,512.000000) scale(0.100000,-0.100000)"
fill="#000000" stroke="none">
<path d="M3470 5035 l0 -85 142 0 143 0 -205 -205 -205 -205 -494 0 -494 0
-166 -165 -167 -165 -244 0 -244 0 -218 -217 -218 -217 57 -58 58 -58 195 195
195 195 249 0 250 0 166 165 166 165 494 0 494 0 228 227 228 227 0 -147 0
-147 85 0 86 0 -3 266 -3 266 -28 24 -28 24 -260 0 -259 0 0 -85z"/>
<path d="M2996 4179 l-26 -31 0 -377 0 -378 -80 -9 -79 -10 -3 313 c-3 310 -3
313 -26 335 -22 22 -28 23 -222 23 -194 0 -200 -1 -222 -23 -23 -22 -23 -24
-26 -354 l-3 -331 -24 23 c-18 17 -41 25 -80 28 l-55 4 0 213 0 213 -26 31
-26 31 -196 0 c-139 -1 -202 -4 -213 -13 -35 -27 -39 -53 -39 -266 l0 -211
-495 0 -495 0 0 55 c0 46 -4 60 -25 80 l-24 25 -281 0 -281 0 -24 -25 -25 -24
0 -1020 0 -1020 24 -28 24 -28 281 0 c352 0 324 -16 331 186 l5 140 108 -81
109 -80 74 0 c41 0 74 -3 74 -6 0 -3 -19 -28 -43 -54 -165 -183 -48 -483 201
-516 l49 -6 6 -49 c17 -140 136 -259 277 -276 l48 -5 5 -49 c17 -143 132 -259
274 -275 l51 -6 5 -49 c13 -106 79 -199 175 -246 48 -24 70 -28 137 -28 108 0
155 23 261 127 l84 82 84 -82 c106 -104 153 -127 261 -127 67 0 89 4 137 28
96 47 162 140 175 246 l5 49 51 6 c142 16 257 132 274 275 l6 49 51 6 c72 9
149 49 195 103 44 49 81 135 81 187 0 33 1 34 53 40 116 15 216 94 258 205 41
108 11 249 -70 325 -17 17 -31 33 -31 38 0 4 33 8 74 8 l74 0 109 80 108 81 5
-140 c7 -202 -21 -186 331 -186 l281 0 24 28 24 28 0 1020 0 1020 -25 24 -24
25 -281 0 -281 0 -24 -25 c-21 -20 -25 -34 -25 -80 l0 -55 -495 0 -495 0 0
376 c0 383 -2 402 -39 431 -11 9 -74 12 -213 13 l-196 0 -26 -31z m304 -459
l0 -330 -80 0 -80 0 0 330 0 330 80 0 80 0 0 -330z m-660 -128 l0 -289 -22
-10 c-13 -6 -49 -34 -80 -63 l-58 -52 0 351 0 351 80 0 80 0 0 -288z m-660
-37 l0 -165 -80 0 -80 0 0 165 0 165 80 0 80 0 0 -165z m-1482 -1077 l2 -908
-165 0 -165 0 0 910 0 910 163 -2 162 -3 3 -907z m4452 2 l0 -910 -165 0 -165
0 0 903 c0 497 3 907 7 910 3 4 78 7 165 7 l158 0 0 -910z m-2378 363 c409
-411 404 -406 396 -509 -11 -136 -157 -222 -286 -169 -24 10 -118 97 -267 245
-212 211 -234 230 -265 230 -32 0 -66 -32 -490 -455 l-456 -455 -131 0 -132 0
-140 106 -141 105 0 640 0 639 768 0 767 0 377 -377z m1888 -263 l0 -640 -141
-105 -140 -105 -131 0 -130 0 -152 148 c-168 165 -197 182 -312 182 -161 0
-295 -118 -311 -273 l-6 -55 -51 -4 c-138 -11 -263 -136 -274 -274 l-4 -52
-52 -4 c-138 -11 -263 -136 -274 -274 l-4 -52 -52 -4 c-66 -5 -134 -38 -185
-89 -59 -59 -85 -120 -89 -209 l-4 -75 -66 -69 c-102 -104 -136 -126 -195
-126 -59 0 -103 24 -131 71 -22 37 -24 104 -6 140 7 13 61 74 121 135 90 92
109 116 109 141 0 47 -34 83 -78 83 -34 0 -46 -9 -127 -91 -128 -130 -156
-149 -219 -149 -75 0 -126 39 -147 112 -18 64 4 103 127 229 94 96 114 122
114 146 0 47 -34 83 -77 83 -33 0 -48 -11 -149 -110 -118 -116 -141 -130 -206
-130 -106 0 -176 120 -125 215 9 17 250 264 536 550 l521 519 207 -205 c186
-184 214 -208 266 -228 85 -31 151 -36 227 -17 119 30 228 128 267 241 25 72
22 184 -7 260 -21 55 -45 82 -269 308 -208 210 -244 250 -235 265 24 37 136
112 197 131 60 19 94 20 860 20 l797 1 0 -640z m-947 -694 c18 -8 141 -123
274 -257 262 -265 274 -282 253 -361 -12 -43 -60 -95 -96 -104 -48 -12 -111 2
-151 34 -21 17 -135 129 -254 249 -184 185 -219 224 -228 261 -33 122 86 228
202 178z m-330 -330 c18 -8 141 -123 274 -257 202 -204 243 -251 252 -285 26
-97 -42 -184 -145 -184 -69 0 -84 12 -350 281 -188 190 -224 230 -233 267 -33
122 86 228 202 178z m-336 -327 c33 -12 497 -471 520 -513 21 -40 20 -106 -3
-145 -45 -76 -148 -96 -220 -42 -78 58 -472 465 -489 505 -49 117 72 241 192
195z m-329 -334 c41 -17 493 -460 518 -509 21 -39 20 -108 -3 -146 -44 -75
-147 -94 -219 -41 -21 16 -139 129 -260 252 -234 237 -253 263 -240 334 12 63
82 124 144 125 12 0 39 -7 60 -15z m-178 -460 l104 -105 -49 -51 c-84 -86
-121 -109 -178 -109 -58 0 -103 24 -130 70 -21 35 -24 107 -7 142 12 23 140
158 150 158 3 0 52 -47 110 -105z"/>
</g>
</svg>
