<?xml version="1.0" standalone="no"?>
<!DOCTYPE svg PUBLIC "-//W3C//DTD SVG 20010904//EN"
 "http://www.w3.org/TR/2001/REC-SVG-20010904/DTD/svg10.dtd">
<svg version="1.0" xmlns="http://www.w3.org/2000/svg"
 width="512.000000pt" height="512.000000pt" viewBox="0 0 512.000000 512.000000"
 preserveAspectRatio="xMidYMid meet">

<g transform="translate(0.000000,512.000000) scale(0.100000,-0.100000)"
fill="#000000" stroke="none">
<path d="M869 4604 c-68 -21 -140 -72 -176 -127 -55 -83 -63 -126 -63 -358 l0
-207 -152 -4 c-147 -3 -155 -4 -221 -35 -124 -59 -220 -176 -246 -301 -8 -37
-11 -445 -11 -1370 0 -1420 -2 -1371 51 -1474 52 -102 175 -193 292 -218 37
-7 584 -10 1857 -7 1796 3 1805 3 1895 24 262 61 465 172 646 352 435 436 502
1097 163 1618 -69 107 -239 280 -344 350 -143 95 -302 163 -465 198 -39 8 -73
15 -77 15 -5 0 -8 192 -8 427 l0 428 -353 352 -353 353 -1194 -1 c-1005 0
-1202 -3 -1241 -15z m2333 -336 c3 -209 4 -214 31 -270 35 -71 110 -140 183
-167 48 -19 77 -21 254 -21 l200 0 0 -368 0 -369 -117 -6 c-167 -9 -323 -50
-478 -126 -119 -58 -252 -149 -309 -210 -17 -17 -33 -31 -38 -31 -4 0 -8 184
-8 410 0 261 -4 428 -11 462 -26 125 -122 242 -246 301 l-68 32 -913 3 -913 3
3 212 c3 200 4 214 26 252 26 45 76 84 124 95 18 4 538 8 1155 9 l1121 1 4
-212z m333 -135 l177 -183 -109 0 c-205 1 -262 62 -263 283 0 49 4 87 9 85 5
-1 89 -85 186 -185z m-920 -395 c64 -34 108 -80 137 -143 23 -50 23 -52 26
-558 l3 -508 -34 -57 c-144 -239 -204 -468 -193 -737 9 -240 71 -443 194 -635
34 -54 34 -55 30 -147 -8 -146 -62 -234 -177 -287 -46 -21 -49 -21 -1141 -21
-1092 0 -1095 0 -1141 21 -66 31 -114 78 -146 142 l-28 57 0 1335 c0 1285 1
1337 19 1384 33 85 112 155 201 177 17 4 518 6 1115 6 l1085 -2 50 -27z m1388
-823 c445 -67 817 -397 932 -827 140 -524 -97 -1066 -576 -1313 -177 -91 -321
-126 -524 -126 -318 0 -585 111 -810 336 -337 336 -427 851 -225 1283 215 459
705 722 1203 647z m-885 -2193 c138 -88 146 -81 -90 -82 -115 0 -208 2 -208 4
0 2 15 29 34 59 18 31 39 78 46 104 6 26 14 54 16 61 3 9 26 -6 66 -42 34 -31
95 -78 136 -104z"/>
<path d="M1072 4277 c-28 -29 -28 -67 -2 -95 l21 -22 684 0 684 0 21 27 c25
32 20 69 -12 96 -19 16 -67 17 -697 17 l-678 0 -21 -23z"/>
<path d="M482 3567 c-48 -18 -99 -63 -125 -110 -21 -40 -22 -53 -22 -267 0
-160 4 -236 13 -262 17 -47 83 -113 130 -130 54 -19 1910 -19 1964 0 47 17
113 83 130 130 9 26 13 102 13 262 0 213 -1 227 -22 267 -27 51 -82 96 -132
112 -55 16 -1903 14 -1949 -2z m1917 -142 c16 -8 31 -22 35 -30 3 -9 6 -107 6
-218 0 -192 -1 -202 -22 -224 l-21 -23 -936 0 -935 0 -23 22 c-23 21 -23 25
-23 228 0 215 2 225 45 248 14 8 291 11 933 12 782 0 917 -2 941 -15z"/>
<path d="M596 2594 c-68 -22 -147 -102 -171 -173 -21 -63 -17 -149 10 -202 24
-47 82 -107 130 -132 57 -31 183 -31 241 0 86 46 154 155 154 248 0 95 -69
203 -155 244 -61 29 -147 35 -209 15z m154 -149 c38 -19 62 -67 62 -119 -1
-48 -26 -85 -76 -110 -99 -49 -209 52 -174 160 24 72 117 106 188 69z"/>
<path d="M1382 2596 c-124 -40 -192 -137 -192 -270 0 -291 404 -366 522 -98
25 56 22 168 -7 226 -56 116 -204 181 -323 142z m164 -169 c72 -66 52 -173
-40 -211 -45 -19 -47 -19 -92 0 -92 38 -112 145 -40 211 30 28 43 33 86 33 43
0 56 -5 86 -33z"/>
<path d="M2175 2601 c-121 -30 -215 -145 -215 -266 0 -93 68 -202 154 -248 32
-17 58 -22 121 -22 92 0 137 19 196 82 50 52 70 96 76 163 8 85 -17 152 -82
216 -71 72 -157 97 -250 75z m136 -164 c126 -85 8 -288 -127 -221 -50 25 -75
62 -76 110 -1 111 112 173 203 111z"/>
<path d="M610 1971 c-150 -49 -229 -195 -186 -343 56 -192 301 -257 449 -119
39 36 77 113 84 170 12 105 -53 223 -152 273 -43 23 -152 33 -195 19z m146
-156 c77 -50 73 -179 -6 -220 -91 -47 -193 13 -193 113 0 101 114 163 199 107z"/>
<path d="M1364 1964 c-60 -21 -119 -76 -149 -139 -24 -48 -27 -64 -23 -127 4
-84 26 -135 76 -186 104 -103 280 -103 384 0 50 51 72 102 76 186 4 63 1 79
-23 127 -61 127 -208 186 -341 139z m155 -142 c119 -64 75 -242 -59 -242 -101
0 -160 100 -112 189 20 38 73 71 112 71 14 0 41 -8 59 -18z"/>
<path d="M2143 1867 c-60 -22 -117 -72 -148 -128 l-30 -54 0 -340 0 -340 30
-54 c32 -58 95 -113 152 -132 19 -6 67 -9 107 -7 60 3 82 9 122 33 54 34 108
105 124 166 7 26 10 154 8 357 l-3 317 -29 53 c-34 61 -85 106 -146 127 -50
18 -142 18 -187 2z m174 -158 c50 -47 53 -67 53 -366 0 -258 -1 -279 -20 -319
-54 -111 -212 -90 -240 32 -12 50 -12 527 -1 577 10 41 43 83 76 98 34 15 104
3 132 -22z"/>
<path d="M562 1324 c-56 -28 -91 -63 -125 -128 -31 -58 -31 -174 0 -232 56
-105 134 -154 242 -154 115 1 194 46 246 142 25 45 29 64 29 128 0 64 -4 83
-29 128 -52 96 -131 141 -246 142 -51 0 -77 -6 -117 -26z m215 -158 c28 -30
33 -43 33 -86 0 -153 -207 -178 -251 -30 -10 33 -9 44 10 83 27 56 69 79 131
73 35 -3 51 -11 77 -40z"/>
<path d="M1350 1329 c-101 -45 -160 -138 -160 -249 1 -156 115 -270 270 -270
155 0 269 114 270 270 0 155 -114 270 -270 270 -44 0 -80 -7 -110 -21z m171
-134 c89 -47 89 -183 0 -230 -61 -31 -136 -11 -171 48 -68 111 55 242 171 182z"/>
<path d="M3647 2814 c-217 -39 -405 -141 -562 -305 -94 -98 -128 -145 -183
-254 -197 -394 -128 -865 175 -1186 145 -153 330 -257 547 -306 96 -22 326
-22 422 0 397 90 694 372 800 763 24 88 27 116 27 259 0 140 -3 172 -26 257
-107 404 -430 702 -836 773 -103 18 -260 18 -364 -1z m408 -154 c433 -110 726
-531 675 -970 -45 -389 -333 -706 -713 -786 -93 -19 -272 -19 -365 1 -576 121
-886 757 -625 1280 67 134 179 264 293 342 109 74 257 133 385 153 87 13 257
4 350 -20z"/>
<path d="M3785 2555 c-22 -21 -25 -33 -25 -93 l0 -68 -50 -18 c-73 -26 -150
-101 -186 -178 -25 -55 -29 -74 -28 -153 1 -188 70 -263 294 -320 199 -50 235
-82 235 -206 0 -63 -4 -81 -24 -111 -58 -84 -165 -112 -257 -68 -52 26 -104
96 -104 140 0 75 -48 122 -103 101 -38 -15 -50 -45 -42 -107 14 -118 99 -229
211 -275 l54 -23 0 -57 c0 -32 4 -69 10 -84 20 -53 104 -53 129 1 6 14 11 52
11 85 0 48 3 61 18 65 136 43 225 150 247 295 8 54 -10 159 -35 209 -23 46
-80 97 -134 119 -23 10 -88 30 -146 45 -175 46 -212 78 -218 187 -7 109 47
183 149 209 111 28 238 -63 239 -171 0 -81 84 -121 130 -62 18 23 20 35 15 78
-15 113 -90 220 -189 268 -30 15 -59 27 -64 27 -6 0 -12 34 -14 76 -3 65 -7
79 -27 95 -32 26 -67 24 -96 -6z"/>
</g>
</svg>
