<?xml version="1.0" standalone="no"?>
<!DOCTYPE svg PUBLIC "-//W3C//DTD SVG 20010904//EN"
 "http://www.w3.org/TR/2001/REC-SVG-20010904/DTD/svg10.dtd">
<svg version="1.0" xmlns="http://www.w3.org/2000/svg"
 width="512.000000pt" height="512.000000pt" viewBox="0 0 512.000000 512.000000"
 preserveAspectRatio="xMidYMid meet">

<g transform="translate(0.000000,512.000000) scale(0.100000,-0.100000)"
fill="#000000" stroke="none">
<path d="M2350 5021 c-398 -85 -702 -381 -803 -781 -16 -68 -21 -116 -21 -235
0 -167 18 -264 74 -398 16 -39 29 -72 27 -73 -1 -1 -342 -206 -757 -454 -415
-249 -763 -461 -772 -472 -17 -19 -18 -94 -18 -1274 l0 -1254 80 0 80 0 0
1218 0 1217 736 442 737 442 37 -47 c52 -66 165 -170 232 -215 420 -278 971
-220 1319 140 36 37 75 80 86 95 l20 27 736 -442 737 -442 0 -1217 0 -1218 80
0 80 0 0 1254 c0 1180 -1 1255 -17 1274 -10 11 -358 224 -773 472 -415 249
-756 454 -757 454 -2 1 11 34 27 73 56 132 74 231 74 398 0 120 -4 167 -21
235 -100 401 -408 698 -808 781 -118 24 -299 24 -415 0z m425 -169 c325 -89
554 -320 641 -648 27 -103 26 -312 -3 -419 -59 -217 -191 -403 -369 -518 -570
-369 -1317 6 -1361 682 -16 248 77 490 257 671 132 131 282 211 465 246 94 18
278 11 370 -14z"/>
<path d="M2640 4095 l-365 -365 -85 85 -86 85 -52 -53 c-28 -29 -52 -57 -52
-63 0 -6 54 -63 119 -127 110 -108 122 -117 157 -117 37 0 52 14 444 405 l405
405 -55 55 c-30 30 -57 55 -60 55 -3 0 -169 -164 -370 -365z"/>
<path d="M585 2295 l-25 -24 0 -1096 0 -1095 80 0 80 0 0 1040 0 1040 1840 0
1840 0 0 -1040 0 -1040 80 0 80 0 0 1095 0 1096 -25 24 -24 25 -1951 0 -1951
0 -24 -25z"/>
<path d="M1545 1815 l-25 -24 0 -376 0 -375 -95 0 c-88 0 -98 -2 -120 -25
l-25 -24 0 -431 0 -431 25 -24 24 -25 1231 0 1231 0 24 25 25 24 0 431 0 431
-25 24 -24 25 -256 0 -255 0 0 375 0 376 -25 24 -24 25 -831 0 -831 0 -24 -25z
m375 -215 l0 -80 80 0 80 0 0 80 0 80 120 0 120 0 0 -320 0 -320 -320 0 -320
0 0 320 0 320 120 0 120 0 0 -80z m800 0 l0 -80 80 0 80 0 0 80 0 80 120 0
120 0 0 -320 0 -320 -320 0 -320 0 0 320 0 320 120 0 120 0 0 -80z m-1040
-800 l0 -80 80 0 80 0 0 80 0 80 120 0 120 0 0 -320 0 -320 -320 0 -320 0 0
320 0 320 120 0 120 0 0 -80z m800 0 l0 -80 80 0 80 0 0 80 0 80 120 0 120 0
0 -320 0 -320 -320 0 -320 0 0 320 0 320 120 0 120 0 0 -80z m800 0 l0 -80 80
0 80 0 0 80 0 80 120 0 120 0 0 -320 0 -320 -320 0 -320 0 0 320 0 320 120 0
120 0 0 -80z"/>
</g>
</svg>
